<mxfile host="app.diagrams.net" agent="Mozilla/5.0 (Windows NT 10.0; Win64; x64; rv:139.0) Gecko/20100101 Firefox/139.0" version="27.0.3">
  <diagram id="C5RBs43oDa-KdzZeNtuy" name="Page-1">
    <mxGraphModel dx="1426" dy="759" grid="1" gridSize="10" guides="1" tooltips="1" connect="1" arrows="1" fold="1" page="1" pageScale="1" pageWidth="827" pageHeight="1169" math="0" shadow="0">
      <root>
        <mxCell id="WIyWlLk6GJQsqaUBKTNV-0" />
        <mxCell id="WIyWlLk6GJQsqaUBKTNV-1" parent="WIyWlLk6GJQsqaUBKTNV-0" />
        <mxCell id="MOaYWt1KECe8FD-YubzE-5" value="" style="edgeStyle=orthogonalEdgeStyle;rounded=0;orthogonalLoop=1;jettySize=auto;html=1;" edge="1" parent="WIyWlLk6GJQsqaUBKTNV-1" source="MOaYWt1KECe8FD-YubzE-0" target="MOaYWt1KECe8FD-YubzE-4">
          <mxGeometry relative="1" as="geometry" />
        </mxCell>
        <mxCell id="MOaYWt1KECe8FD-YubzE-0" value="&lt;div&gt;Day Vector&lt;/div&gt;&lt;div&gt;100-dimensions&lt;/div&gt;" style="rounded=1;whiteSpace=wrap;html=1;fillColor=#dae8fc;strokeColor=#6c8ebf;" vertex="1" parent="WIyWlLk6GJQsqaUBKTNV-1">
          <mxGeometry x="120" y="60" width="120" height="60" as="geometry" />
        </mxCell>
        <mxCell id="MOaYWt1KECe8FD-YubzE-1" value="Embedding Layer" style="text;html=1;align=center;verticalAlign=middle;whiteSpace=wrap;rounded=0;" vertex="1" parent="WIyWlLk6GJQsqaUBKTNV-1">
          <mxGeometry x="150" y="20" width="60" height="30" as="geometry" />
        </mxCell>
        <mxCell id="MOaYWt1KECe8FD-YubzE-2" value="&lt;div&gt;Technical&lt;/div&gt;&lt;div&gt;Layer&lt;/div&gt;" style="text;html=1;align=center;verticalAlign=middle;resizable=0;points=[];autosize=1;strokeColor=none;fillColor=none;" vertex="1" parent="WIyWlLk6GJQsqaUBKTNV-1">
          <mxGeometry x="325" y="15" width="70" height="40" as="geometry" />
        </mxCell>
        <mxCell id="MOaYWt1KECe8FD-YubzE-11" value="" style="edgeStyle=orthogonalEdgeStyle;rounded=0;orthogonalLoop=1;jettySize=auto;html=1;" edge="1" parent="WIyWlLk6GJQsqaUBKTNV-1" source="MOaYWt1KECe8FD-YubzE-3" target="MOaYWt1KECe8FD-YubzE-10">
          <mxGeometry relative="1" as="geometry" />
        </mxCell>
        <mxCell id="MOaYWt1KECe8FD-YubzE-3" value="&lt;div&gt;Technical Indicators&lt;/div&gt;&lt;div&gt;7 dimensions&lt;/div&gt;" style="rounded=1;whiteSpace=wrap;html=1;fillColor=#f8cecc;strokeColor=#b85450;" vertex="1" parent="WIyWlLk6GJQsqaUBKTNV-1">
          <mxGeometry x="300" y="60" width="120" height="60" as="geometry" />
        </mxCell>
        <mxCell id="MOaYWt1KECe8FD-YubzE-7" value="" style="edgeStyle=orthogonalEdgeStyle;rounded=0;orthogonalLoop=1;jettySize=auto;html=1;" edge="1" parent="WIyWlLk6GJQsqaUBKTNV-1" source="MOaYWt1KECe8FD-YubzE-4" target="MOaYWt1KECe8FD-YubzE-6">
          <mxGeometry relative="1" as="geometry" />
        </mxCell>
        <mxCell id="MOaYWt1KECe8FD-YubzE-4" value="1D Convolutional CNN Layer" style="whiteSpace=wrap;html=1;rounded=1;fillColor=#dae8fc;strokeColor=#6c8ebf;" vertex="1" parent="WIyWlLk6GJQsqaUBKTNV-1">
          <mxGeometry x="120" y="170" width="120" height="60" as="geometry" />
        </mxCell>
        <mxCell id="MOaYWt1KECe8FD-YubzE-9" value="" style="edgeStyle=orthogonalEdgeStyle;rounded=0;orthogonalLoop=1;jettySize=auto;html=1;" edge="1" parent="WIyWlLk6GJQsqaUBKTNV-1" source="MOaYWt1KECe8FD-YubzE-6" target="MOaYWt1KECe8FD-YubzE-8">
          <mxGeometry relative="1" as="geometry" />
        </mxCell>
        <mxCell id="MOaYWt1KECe8FD-YubzE-6" value="ReLU Activation &amp;amp; MaxPooling with Dropout" style="whiteSpace=wrap;html=1;rounded=1;fillColor=#dae8fc;strokeColor=#6c8ebf;" vertex="1" parent="WIyWlLk6GJQsqaUBKTNV-1">
          <mxGeometry x="120" y="260" width="120" height="60" as="geometry" />
        </mxCell>
        <mxCell id="MOaYWt1KECe8FD-YubzE-14" style="edgeStyle=orthogonalEdgeStyle;rounded=0;orthogonalLoop=1;jettySize=auto;html=1;entryX=0;entryY=0.5;entryDx=0;entryDy=0;" edge="1" parent="WIyWlLk6GJQsqaUBKTNV-1" source="MOaYWt1KECe8FD-YubzE-8" target="MOaYWt1KECe8FD-YubzE-12">
          <mxGeometry relative="1" as="geometry" />
        </mxCell>
        <mxCell id="MOaYWt1KECe8FD-YubzE-8" value="LSTM News Layer" style="whiteSpace=wrap;html=1;rounded=1;fillColor=#dae8fc;strokeColor=#6c8ebf;gradientColor=#7ea6e0;" vertex="1" parent="WIyWlLk6GJQsqaUBKTNV-1">
          <mxGeometry x="120" y="370" width="120" height="60" as="geometry" />
        </mxCell>
        <mxCell id="MOaYWt1KECe8FD-YubzE-13" value="" style="edgeStyle=orthogonalEdgeStyle;rounded=0;orthogonalLoop=1;jettySize=auto;html=1;entryX=1;entryY=0.5;entryDx=0;entryDy=0;" edge="1" parent="WIyWlLk6GJQsqaUBKTNV-1" source="MOaYWt1KECe8FD-YubzE-10" target="MOaYWt1KECe8FD-YubzE-12">
          <mxGeometry relative="1" as="geometry" />
        </mxCell>
        <mxCell id="MOaYWt1KECe8FD-YubzE-10" value="LSTM technical layer" style="rounded=1;whiteSpace=wrap;html=1;fillColor=#f8cecc;strokeColor=#b85450;gradientColor=#ea6b66;" vertex="1" parent="WIyWlLk6GJQsqaUBKTNV-1">
          <mxGeometry x="300" y="370" width="120" height="60" as="geometry" />
        </mxCell>
        <mxCell id="MOaYWt1KECe8FD-YubzE-16" value="" style="edgeStyle=orthogonalEdgeStyle;rounded=0;orthogonalLoop=1;jettySize=auto;html=1;" edge="1" parent="WIyWlLk6GJQsqaUBKTNV-1" source="MOaYWt1KECe8FD-YubzE-12" target="MOaYWt1KECe8FD-YubzE-15">
          <mxGeometry relative="1" as="geometry" />
        </mxCell>
        <mxCell id="MOaYWt1KECe8FD-YubzE-12" value="Concatenation Layer" style="whiteSpace=wrap;html=1;rounded=1;fillColor=#e6d0de;strokeColor=#996185;gradientColor=#d5739d;" vertex="1" parent="WIyWlLk6GJQsqaUBKTNV-1">
          <mxGeometry x="210" y="460" width="120" height="60" as="geometry" />
        </mxCell>
        <mxCell id="MOaYWt1KECe8FD-YubzE-15" value="Softmax&lt;br&gt;Binary Classification" style="whiteSpace=wrap;html=1;rounded=1;fillColor=#ffcd28;strokeColor=#d79b00;gradientColor=#ffa500;" vertex="1" parent="WIyWlLk6GJQsqaUBKTNV-1">
          <mxGeometry x="210" y="555" width="120" height="60" as="geometry" />
        </mxCell>
      </root>
    </mxGraphModel>
  </diagram>
</mxfile>
